<?xml version="1.0" encoding="UTF-8" standalone="no"?>
<!-- Generator: Adobe Illustrator 18.0.0, SVG Export Plug-In . SVG Version: 6.00 Build 0)  -->

<svg
   xmlns:dc="http://purl.org/dc/elements/1.1/"
   xmlns:cc="http://creativecommons.org/ns#"
   xmlns:rdf="http://www.w3.org/1999/02/22-rdf-syntax-ns#"
   xmlns:svg="http://www.w3.org/2000/svg"
   xmlns="http://www.w3.org/2000/svg"
   xmlns:sodipodi="http://sodipodi.sourceforge.net/DTD/sodipodi-0.dtd"
   xmlns:inkscape="http://www.inkscape.org/namespaces/inkscape"
   width="180"
   height="180"
   viewBox="0 0 180 180"
   id="svg2"
   version="1.1"
   inkscape:version="0.91 r13725"
   sodipodi:docname="ails-logo-ico.svg"
   inkscape:export-filename="/Users/ayakimovich/Documents/favicon.png"
   inkscape:export-xdpi="301.44937"
   inkscape:export-ydpi="301.44937">
  <metadata
     id="metadata11">
    <rdf:RDF>
      <cc:Work
         rdf:about="">
        <dc:format>image/svg+xml</dc:format>
        <dc:type
           rdf:resource="http://purl.org/dc/dcmitype/StillImage" />
        <dc:title></dc:title>
      </cc:Work>
    </rdf:RDF>
  </metadata>
  <defs
     id="defs9" />
  <sodipodi:namedview
     pagecolor="#ffffff"
     bordercolor="#666666"
     borderopacity="1"
     objecttolerance="10"
     gridtolerance="10"
     guidetolerance="10"
     inkscape:pageopacity="0"
     inkscape:pageshadow="2"
     inkscape:window-width="1013"
     inkscape:window-height="667"
     id="namedview7"
     showgrid="false"
     inkscape:zoom="0.56641697"
     inkscape:cx="-196.54875"
     inkscape:cy="-21.883293"
     inkscape:window-x="0"
     inkscape:window-y="0"
     inkscape:window-maximized="0"
     inkscape:current-layer="svg2" />
  <path
     style="font-size:medium;fill:#000000;fill-rule:evenodd;stroke:#ffffff;stroke-width:0.91945279mm;stroke-linecap:round;stroke-opacity:0.27380952"
     inkscape:connector-curvature="0"
     id="path5"
     vector-effect="non-scaling-stroke"
     d="m 58.424025,-26.276561 8.668819,0 c -0.924659,10.795057 -1.423449,28.8956911 -1.496317,54.301866 -0.0081,2.235811 -0.01219,4.471622 -0.01219,6.707433 l -8.668809,0 C 55.847485,28.440492 54.217116,22.246539 52.042688,16.218209 49.457114,9.1602592 46.164207,2.8583946 42.163986,-2.6874941 41.75096,-3.259403 41.328744,-3.8253175 40.897589,-4.384988 32.982595,-14.672808 21.235717,-19.816751 5.6569978,-19.816751 c -3.4383459,-0.02511 -6.8652785,0.379799 -10.1915034,1.209418 -4.4676412,1.117582 -8.5949314,3.223911 -12.0458774,6.147584 -4.436469,3.7768347 -7.335855,8.9195941 -8.190136,14.5273909 -0.32528,1.9006197 -0.485526,3.8235592 -0.478669,5.7492291 0,8.373813 3.015227,15.371939 9.045717,20.994377 2.022463,1.863797 4.136785,3.635077 6.3357646,5.307808 5.7616255,4.428559 13.323591,9.418148 22.6858954,14.968809 2.261434,1.196251 5.653574,3.229907 10.176427,6.100932 3.741009,2.318926 7.447602,4.687738 11.118693,7.105786 3.284104,2.165216 6.323226,4.240766 9.11733,6.226538 2.597594,1.839366 5.149916,3.735948 7.654948,5.688215 7.035562,5.502797 12.751912,11.842991 17.149158,19.02054 3.415864,5.638928 5.540373,11.902074 6.233996,18.378184 0.244228,2.12014 0.365232,4.25153 0.361832,6.38442 0,15.79065 -6.218921,28.11212 -18.656787,36.96445 -9.156981,6.44081 -19.838913,10.63519 -31.10217,12.21264 -4.860011,0.72427 -9.772622,1.08065 -14.691759,1.06587 -4.9789857,0.0175 -9.95146027,-0.34416 -14.8688858,-1.08739 -5.1106777,-0.76501 -10.1122562,-2.08592 -14.9065972,-3.9369 -5.52794,-2.63176 -10.678951,-5.86165 -15.453086,-9.68972 -0.378613,-0.36774 -0.811594,-0.68086 -1.285258,-0.92949 -0.646392,-0.33483 -1.371062,-0.50886 -2.106898,-0.50602 -1.728752,0 -3.276547,1.15917 -4.643455,3.47753 -0.0227,0.0368 -0.04521,0.0741 -0.06792,0.11133 -0.927188,1.60775 -1.713667,3.64737 -2.359424,6.11886 -0.333558,1.29304 -0.613752,2.59797 -0.840497,3.91179 l -8.672576,0.0174 c 0.286066,-4.03987 0.506035,-8.0837 0.659573,-12.1301 0.50759,-12.60138 0.787732,-29.83952 0.840498,-51.71435 0.0084,-2.643699 0.0084,-5.287464 0.0084,-7.931224 l 8.668805,0 c 0.744061,6.214824 1.765162,12.396694 3.060465,18.528914 2.887106,13.43878 6.892346,24.06993 12.01574,31.8935 7.286813,11.12522 19.72467,16.68784 37.3135697,16.68784 8.7944453,0 16.5838163,-2.75142 23.3680973,-8.2542 3.802975,-3.14218 6.605029,-7.23627 8.088371,-11.81785 0.979963,-2.83755 1.615692,-5.99088 1.90715,-9.46006 0.124092,-1.51756 0.184391,-3.03919 0.1809,-4.56134 0.0611,-4.82249 -0.95634,-9.60217 -2.985079,-14.02132 -1.707384,-3.59444 -4.079385,-6.86801 -7.002873,-9.66408 C 24.440132,96.818734 13.572712,89.043073 -1.5034768,79.951453 -11.649759,73.838579 -19.876339,68.619268 -26.1832,64.293603 c -1.269156,-0.868229 -2.528098,-1.749932 -3.776594,-2.644923 -6.658659,-4.785038 -12.249392,-10.646704 -16.772251,-17.585041 -3.376202,-5.243173 -5.526823,-11.117184 -6.305626,-17.222564 -0.323765,-2.381192 -0.483793,-4.780044 -0.478671,-7.181153 -0.04822,-4.812091 0.580577,-9.608643 1.869458,-14.2618215 2.194139,-8.0092287 7.101066,-15.1058663 13.96054,-20.1904885 7.293001,-5.383999 15.848068,-9.004398 24.932265,-10.551021 4.952335,-0.882193 9.9814476,-1.314785 15.0196532,-1.29196 4.2293651,-0.01803 8.4528738,0.301817 12.6263058,0.954616 3.930303,0.616337 7.78278,1.619402 11.495595,2.993045 2.699659,0.999689 5.335024,2.150075 7.892387,3.445231 3.510239,1.792021 6.533017,3.753865 9.068333,5.885601 2.763953,1.914042 5.025381,2.871027 6.784301,2.871027 1.82457,-0.02871 3.51146,-0.930035 4.488922,-2.397306 1.829225,-2.380547 3.065473,-6.532769 3.708745,-12.456664 0.03393,-0.312224 0.06475,-0.624269 0.09423,-0.936672 z m -419.871955,65.315838 0,-22.250451 c 0,-11.6898495 -2.18353,-20.2802083 -6.5506,-25.7710463 -0.7941,-1.0040318 -1.69323,-1.9287167 -2.68355,-2.7597727 -3.38796,-2.778326 -7.37527,-4.814458 -11.68031,-5.964556 -3.0504,-0.856498 -6.40235,-1.399625 -10.05581,-1.629308 -1.35887,-0.08291 -2.72021,-0.12382 -4.08188,-0.122019 -10.34979,0 -18.9156,1.491749 -25.69738,4.47521 -4.51035,1.914258 -8.48827,4.806026 -11.6162,8.4444055 5.0254,1.196286 9.23418,3.7083953 12.62631,7.53644291 2.62159,2.98249359 4.29056,6.61789229 4.80931,10.47565459 0.18943,1.285252 0.28257,2.581662 0.27892,3.879473 0.0215,2.092045 -0.26263,4.176734 -0.84429,6.194241 -0.89393,3.076985 -2.69343,5.84634 -5.18619,7.981449 -3.09727,2.651716 -6.95848,4.35811 -11.08478,4.898687 -1.4458,0.207432 -2.90618,0.309714 -4.36832,0.305049 -7.03556,0 -12.31222,-2.093445 -15.83,-6.280369 -2.92571,-3.506636 -4.70432,-7.754785 -5.1146,-12.216214 -0.10835,-1.008736 -0.16248,-2.022102 -0.16209,-3.036112 -0.0156,-2.19332 0.22489,-4.3814713 0.71611,-6.5244062 0.63609,-2.8167998 1.86712,-5.4810377 3.61829,-7.8307207 1.27427,-1.6650183 2.69261,-3.2255973 4.24017,-4.6654168 1.50764,-1.4211586 3.21377,-2.8410973 5.11838,-4.2598853 1.18941,-0.885318 2.40479,-1.738621 3.64466,-2.558802 5.2239,-3.524185 11.67401,-6.508831 19.35029,-8.954011 1.20704,-0.384468 2.42086,-0.749376 3.64092,-1.094578 6.34315,-1.77067 12.85539,-2.936775 19.44074,-3.48112 3.68686,-0.315094 7.38686,-0.470633 11.08855,-0.466542 13.21427,0 24.25759,2.010939 33.12993,6.032742 4.14546,1.85375 7.97082,4.296922 11.34483,7.245752 6.28176,5.5028223 10.49052,12.1420708 12.62633,19.9177399 0.78676,2.9273369 1.39586,5.8954021 1.8242,8.8894161 0.45982,3.103112 0.80533,6.471758 1.0365,10.10601 0.23707,3.89207 0.35145,7.790062 0.34298,11.688663 l 0,99.768158 c -0.004,1.47212 0.0588,2.9437 0.18846,4.4106 0.34174,3.73952 1.15834,6.57588 2.44988,8.50901 1.16718,1.73629 2.98762,2.98175 5.08821,3.48114 1.17093,0.31113 2.49007,0.46654 3.95751,0.46654 3.01521,0 5.84203,-0.65796 8.48035,-1.97384 1.22837,-0.617 2.42108,-1.29624 3.57305,-2.03485 1.57546,-1.00484 3.21124,-2.18076 4.90732,-3.52779 l 4.14592,6.10094 c -1.91314,1.40678 -3.86232,2.76854 -5.84578,4.08404 -3.95499,2.61027 -7.49286,4.61282 -10.61365,6.00763 -0.10415,0.0459 -0.20835,0.0912 -0.31283,0.13631 -2.17306,0.93284 -4.44852,1.6322 -6.78428,2.08509 -3.20369,0.64361 -6.7843,0.96539 -10.74178,0.96539 -2.95826,0.0174 -5.91339,-0.18515 -8.83842,-0.6065 -7.43507,-1.11971 -12.90647,-3.78856 -16.41422,-8.00657 -2.54421,-3.11841 -4.4075,-6.68994 -5.48017,-10.50437 -1.12067,-3.79695 -1.68101,-8.07118 -1.68101,-12.82273 -2.56886,4.12866 -5.49901,8.04356 -8.75927,11.70301 -3.64089,4.03861 -7.49538,7.38572 -11.56345,10.04143 -1.81518,1.18893 -3.71425,2.25734 -5.68371,3.19761 -9.79953,4.6654 -20.85539,6.99812 -33.16763,6.99812 -4.36155,0.025 -8.71723,-0.30791 -13.01828,-0.99769 -4.71132,-0.78473 -8.91883,-2.03602 -12.62256,-3.75387 -3.57846,-1.63189 -6.8278,-3.84999 -9.59976,-6.55311 -7.28431,-7.1656 -11.10613,-16.97972 -11.46546,-29.44238 -0.0196,-0.65299 -0.0296,-1.30622 -0.0301,-1.95946 -0.0329,-4.0656 0.46972,-8.11905 1.49631,-12.06549 1.38154,-5.33037 4.0287,-10.28797 7.73786,-14.491524 6.15613,-6.938289 13.44296,-12.441106 21.86047,-16.508393 5.6561,-2.732253 12.5321,-5.573374 20.62801,-8.523365 4.21727,-1.53135 8.4605,-2.996953 12.72807,-4.396263 3.6928,-1.188008 7.36318,-2.438279 11.00941,-3.750267 8.64118,-3.122246 15.39906,-6.05904 20.2737,-8.810451 1.97114,-1.084743 3.77694,-2.421422 5.36713,-3.972781 3.14649,-3.054483 4.87834,-7.180938 4.80929,-11.458982 z m 248.38028,-157.188647 0,247.98483 c -0.0116,2.26783 0.12431,4.53414 0.40328,6.78638 0.63068,4.90711 2.01267,8.74348 4.14595,11.50925 0.54886,0.71739 1.17127,1.38099 1.85815,1.98101 1.62439,1.36434 3.49523,2.43681 5.52166,3.16529 3.550432,1.34463 8.060747,2.12339 13.530882,2.33631 1.061068,0.0409 2.122914,0.0613 3.184854,0.0609 l 0,7.53645 c -18.882946,-0.78235 -32.484186,-1.2453 -40.803736,-1.38886 -1.60041,-0.0287 -3.20105,-0.0444 -4.80176,-0.0467 -1.97265,0.004 -3.94522,0.025 -5.9174,0.0682 -8.39744,0.1652 -21.6268,0.62087 -39.68809,1.36734 l 0,-7.53644 c 10.55334,0 17.96581,-1.85421 22.23739,-5.56261 1.70133,-1.52743 3.03366,-3.38872 3.90474,-5.45496 1.44229,-3.23707 2.26142,-7.36178 2.45742,-12.37411 0.0309,-0.81553 0.0461,-1.6315 0.0452,-2.44756 l 0,-204.919462 c 0.0144,-2.848054 -0.15173,-5.694358 -0.49751,-8.523353 -0.76386,-5.976373 -2.40465,-10.72792 -4.92237,-14.254505 -0.31046,-0.435197 -0.63993,-0.857852 -0.98749,-1.266839 -2.06202,-2.363951 -4.72797,-4.183131 -7.74163,-5.282681 -3.89217,-1.50251 -8.72409,-2.25376 -14.49576,-2.25376 l 0,-7.53644 c 7.78937,0.71775 15.57873,1.07663 23.3681,1.07663 5.33953,0.0144 10.67698,-0.20255 15.99585,-0.64957 4.99021,-0.43304 9.61985,-1.08381 13.88893,-1.95229 3.15195,-0.63169 6.26183,-1.44058 9.31332,-2.42243 z m -107.79478,92.590566 0,155.394264 c -0.0109,2.26783 0.12447,4.53414 0.40329,6.78638 0.63069,4.90707 2.01267,8.74348 4.14595,11.50925 0.54883,0.71739 1.17128,1.38099 1.85815,1.98101 1.62439,1.36434 3.49523,2.43681 5.52165,3.16529 3.55044,1.34463 8.06073,2.12339 13.53088,2.33631 1.06107,0.0409 2.12291,0.0613 3.18485,0.0609 l 0,7.53645 c -18.88293,-0.78235 -32.48417,-1.2453 -40.80371,-1.38886 -1.60042,-0.0287 -3.20107,-0.0444 -4.80177,-0.0467 -1.97265,0.004 -3.94522,0.025 -5.91742,0.0682 -8.39743,0.1652 -21.62679,0.62087 -39.68807,1.36734 l 0,-7.53644 c 10.55334,0 17.96579,-1.85421 22.23739,-5.56261 1.70132,-1.52743 3.03365,-3.38872 3.90473,-5.45496 1.44229,-3.23707 2.26142,-7.36178 2.45742,-12.37411 0.0309,-0.81553 0.0462,-1.6315 0.0453,-2.44756 l 0,-112.328884 c 0.0143,-2.848057 -0.15174,-5.694358 -0.4975,-8.5233584 -0.76386,-5.9765064 -2.40466,-10.7280527 -4.92239,-14.2546433 -0.31049,-0.4351743 -0.63993,-0.8578249 -0.98749,-1.2668395 -2.06201,-2.3639298 -4.72796,-4.1831208 -7.74163,-5.2826868 -3.89216,-1.502481 -8.72408,-2.253757 -14.49575,-2.253757 l 0,-7.53644 c 6.8255,0.616875 13.67446,0.970083 20.53001,1.058689 0.94598,0.01083 1.89202,0.01803 2.83808,0.01803 5.33953,0.01434 10.67698,-0.202407 15.99585,-0.64957 4.99022,-0.433023 9.61987,-1.083811 13.88894,-1.952299 3.15194,-0.631662 6.26183,-1.44057 9.31332,-2.422426 z m -140.5855,149.652204 0,-70.340117 c -1.89104,2.773986 -4.35901,5.149581 -7.25165,6.980187 -0.70494,0.452928 -1.4292,0.877962 -2.17097,1.274021 -4.02033,2.153269 -10.17644,5.024276 -18.46834,8.613061 -9.54825,3.828046 -17.27481,7.476626 -23.17963,10.9458 -4.89891,2.905725 -9.22259,6.609583 -12.77332,10.942191 -0.871,1.04895 -1.702,2.127506 -2.49135,3.23348 -2.37657,3.388684 -4.0854,7.160947 -5.04297,11.132397 -0.76636,3.02894 -1.20986,6.31027 -1.33049,9.84404 -0.0227,0.66372 -0.0338,1.32774 -0.0338,1.99178 -0.0203,3.11498 0.24953,6.22547 0.80658,9.29493 1.186,6.28517 3.6811,11.32146 7.48534,15.1088 5.52795,5.50277 12.81477,8.2542 21.86047,8.2542 16.58383,0 30.78056,-9.09157 42.59026,-27.27477 z m 137.7248,-228.81713 c -4.40392,-4.27775 -10.44753,-6.66329 -16.73835,-6.60696 -2.9431,-0.0204 -5.8638,0.48843 -8.6085,1.50012 -3.14191,1.2011 -5.98643,3.01246 -8.35222,5.31857 -0.0733,0.0714 -0.14612,0.14319 -0.2186,0.21533 -4.49306,4.1918 -6.99973,9.944971 -6.94259,15.934183 -0.022,2.803555 0.5125,5.58583 1.57547,8.200367 1.2619,2.990352 3.16422,5.697587 5.58572,7.949157 0.075,0.07108 0.15034,0.141383 0.22615,0.211733 4.40299,4.276857 10.44506,6.662327 16.73457,6.606953 2.94437,0.02153 5.86639,-0.487975 8.61227,-1.500119 3.14055,-1.201521 5.98377,-3.012888 8.34845,-5.318567 0.0745,-0.07142 0.14865,-0.143195 0.22238,-0.215331 4.49166,-4.192377 6.99694,-9.945484 6.9388,-15.934193 0.0234,-2.803307 -0.51,-5.585582 -1.57169,-8.200366 -1.263,-2.990651 -3.16662,-5.697907 -5.58949,-7.949147 -0.0737,-0.0709 -0.14787,-0.14154 -0.22237,-0.21173 z m 380.29695,233.62969 c -4.40391,-4.27771 -10.44753,-6.66325 -16.73833,-6.60694 -2.94312,-0.0215 -5.86382,0.48845 -8.60854,1.50012 -3.14186,1.20114 -5.9864,3.01246 -8.35219,5.31856 -0.0731,0.0714 -0.14619,0.14309 -0.21862,0.21534 -4.49302,4.1918 -6.99969,9.94498 -6.94257,15.93421 -0.0227,2.80355 0.51252,5.58582 1.57548,8.20035 1.26191,2.99037 3.16421,5.6976 5.58571,7.94917 0.0749,0.0711 0.15027,0.14154 0.22617,0.21172 4.40298,4.27686 10.44503,6.66233 16.73456,6.60695 2.94436,0.0215 5.86635,-0.48797 8.61226,-1.5001 3.14057,-1.20154 5.98378,-3.01291 8.34843,-5.31857 0.0747,-0.0714 0.14853,-0.14309 0.22237,-0.21534 4.49166,-4.19244 6.99695,-9.9455 6.93884,-15.93418 0.0227,-2.80332 -0.51004,-5.58559 -1.57169,-8.20039 -1.26303,-2.99062 -3.16665,-5.69789 -5.58952,-7.94916 -0.0738,-0.0711 -0.14773,-0.14154 -0.22236,-0.21174 z"
     sodipodi:nodetypes="ccccccccccccccccccccccccccccccccccccccccccscccccccccccccccccccccccccsccccccccccccccccccccccscccccccccccccscccccccccccccccccccccccccccccccccccccccccccccccccccccccccccccccccccccccccccccccccccccccccccccccccccccccsccccccccccccccccccccccccccccccccccc" />
</svg>
