<?xml version="1.0" encoding="UTF-8" standalone="no"?>
<!-- Generator: Adobe Illustrator 18.0.0, SVG Export Plug-In . SVG Version: 6.00 Build 0)  -->

<svg
   xmlns:dc="http://purl.org/dc/elements/1.1/"
   xmlns:cc="http://creativecommons.org/ns#"
   xmlns:rdf="http://www.w3.org/1999/02/22-rdf-syntax-ns#"
   xmlns:svg="http://www.w3.org/2000/svg"
   xmlns="http://www.w3.org/2000/svg"
   xmlns:sodipodi="http://sodipodi.sourceforge.net/DTD/sodipodi-0.dtd"
   xmlns:inkscape="http://www.inkscape.org/namespaces/inkscape"
   width="560"
   height="90"
   viewBox="0 0 560.00001 90.000002"
   id="svg2"
   version="1.1"
   inkscape:version="0.91 r13725"
   sodipodi:docname="ails-logo.svg">
  <metadata
     id="metadata11">
    <rdf:RDF>
      <cc:Work
         rdf:about="">
        <dc:format>image/svg+xml</dc:format>
        <dc:type
           rdf:resource="http://purl.org/dc/dcmitype/StillImage" />
        <dc:title></dc:title>
      </cc:Work>
    </rdf:RDF>
  </metadata>
  <defs
     id="defs9" />
  <sodipodi:namedview
     pagecolor="#ffffff"
     bordercolor="#666666"
     borderopacity="1"
     objecttolerance="10"
     gridtolerance="10"
     guidetolerance="10"
     inkscape:pageopacity="0"
     inkscape:pageshadow="2"
     inkscape:window-width="1013"
     inkscape:window-height="667"
     id="namedview7"
     showgrid="false"
     inkscape:zoom="0.56641697"
     inkscape:cx="273.64999"
     inkscape:cy="39.904499"
     inkscape:window-x="0"
     inkscape:window-y="0"
     inkscape:window-maximized="0"
     inkscape:current-layer="svg2" />
  <g
     id="svgGroup"
     font-size="9pt"
     style="font-size:11.25px;fill:#000000;fill-rule:evenodd;stroke:#ffffff;stroke-width:0.25mm;stroke-linecap:round;stroke-opacity:0.27380952"
     transform="translate(6,4.1910019)">
    <path
       d="m 253.6,42.4 0,26.7 a 15.576,15.576 0 0 0 0.107,1.891 q 0.251,2.051 1.1,3.207 a 3.728,3.728 0 0 0 0.493,0.552 4.752,4.752 0 0 0 1.465,0.882 q 1.413,0.562 3.59,0.651 A 20.725,20.725 0 0 0 261.2,76.3 l 0,2.1 q -7.515,-0.327 -10.76,-0.387 A 68.814,68.814 0 0 0 249.2,78 q -2.287,0 -8.311,0.267 A 878.094,878.094 0 0 0 238,78.4 l 0,-2.1 a 13.89,13.89 0 0 0 1.759,-0.103 q 2.315,-0.297 3.391,-1.447 1.234,-1.318 1.418,-4.48 A 20.114,20.114 0 0 0 244.6,69.1 l 0,-28.9 a 31.581,31.581 0 0 0 -0.141,-3.091 q -0.309,-3.139 -1.3,-5.151 A 8.748,8.748 0 0 0 243,31.65 5.14,5.14 0 0 0 240.156,29.265 q -0.945,-0.353 -2.137,-0.486 A 13.783,13.783 0 0 0 236.5,28.7 q -4.1,0 -7.3,2.4 a 14.777,14.777 0 0 0 -3.984,4.584 18.521,18.521 0 0 0 -0.966,1.966 q -1.75,4.15 -1.75,9.25 l 0,22.2 q 0,4.1 1.45,5.65 a 4.043,4.043 0 0 0 1.404,0.945 q 1.266,0.534 3.217,0.597 A 16.517,16.517 0 0 0 229.1,76.3 l 0,2.1 a 844.713,844.713 0 0 0 -3.407,-0.156 q -4.291,-0.187 -6.579,-0.231 A 64.542,64.542 0 0 0 217.9,78 q -2.287,0 -8.845,0.267 A 1143.184,1143.184 0 0 0 205.9,78.4 l 0,-2.1 q 4.2,0 5.9,-1.55 a 4.281,4.281 0 0 0 1.036,-1.52 q 0.574,-1.353 0.652,-3.448 A 18.248,18.248 0 0 0 213.5,69.1 l 0,-31.3 a 19.725,19.725 0 0 0 -0.132,-2.375 q -0.304,-2.498 -1.306,-3.972 A 5.259,5.259 0 0 0 211.8,31.1 4.992,4.992 0 0 0 209.746,29.628 Q 208.197,29 205.9,29 l 0,-2.1 a 67.314,67.314 0 0 0 5.447,0.295 60.756,60.756 0 0 0 0.753,0.005 46.784,46.784 0 0 0 4.244,-0.181 q 1.986,-0.181 3.685,-0.544 A 21.642,21.642 0 0 0 222.5,25.8 l 0,11.8 a 24.806,24.806 0 0 1 2.099,-4.221 q 2.035,-3.225 4.851,-5.029 a 18.161,18.161 0 0 1 9.702,-2.847 21.798,21.798 0 0 1 0.348,-0.003 q 5.045,0 8.324,1.974 A 10.77,10.77 0 0 1 250.1,29.3 q 1.9,2 2.7,5 0.8,3 0.8,8.1 z m 202.2,-16.6 0,41.8 a 19.725,19.725 0 0 0 0.133,2.375 q 0.304,2.498 1.305,3.972 a 5.259,5.259 0 0 0 0.262,0.353 4.992,4.992 0 0 0 2.054,1.472 q 1.55,0.628 3.846,0.628 l 0,2.1 q -3.1,-0.3 -6.2,-0.3 a 46.784,46.784 0 0 0 -4.244,0.181 q -1.985,0.181 -3.685,0.544 A 21.642,21.642 0 0 0 446.8,79.6 l 0,-11.8 a 23.734,23.734 0 0 1 -2.155,4.302 q -1.688,2.618 -3.941,4.304 A 14.475,14.475 0 0 1 440,76.9 q -4.4,2.9 -9.6,2.9 a 19.437,19.437 0 0 1 -4.118,-0.409 q -2.595,-0.563 -4.539,-1.9 A 10.923,10.923 0 0 1 420,76 10.459,10.459 0 0 1 418.161,73.07 13.853,13.853 0 0 1 417.45,70.9 q -0.509,-2.107 -0.673,-5.046 A 53.391,53.391 0 0 1 416.7,62.9 l 0,-25.1 a 19.725,19.725 0 0 0 -0.132,-2.375 q -0.304,-2.498 -1.306,-3.972 A 5.259,5.259 0 0 0 415,31.1 4.992,4.992 0 0 0 412.946,29.628 Q 411.397,29 409.1,29 l 0,-2.1 q 3.1,0.3 6.2,0.3 a 46.784,46.784 0 0 0 4.244,-0.181 q 1.986,-0.181 3.685,-0.544 A 21.642,21.642 0 0 0 425.7,25.8 l 0,39.3 a 53.353,53.353 0 0 0 0.044,2.233 q 0.048,1.142 0.149,2.115 a 21.186,21.186 0 0 0 0.257,1.802 q 0.45,2.35 2.1,3.85 a 5.101,5.101 0 0 0 1.76,1.019 q 0.768,0.27 1.713,0.389 A 12.712,12.712 0 0 0 433.3,76.6 q 3.8,0 6.9,-2.4 a 14.879,14.879 0 0 0 3.692,-4.24 19.039,19.039 0 0 0 1.158,-2.31 q 1.75,-4.15 1.75,-9.15 l 0,-20.7 a 19.725,19.725 0 0 0 -0.132,-2.375 q -0.304,-2.498 -1.306,-3.972 A 5.259,5.259 0 0 0 445.1,31.1 4.992,4.992 0 0 0 443.046,29.628 Q 441.497,29 439.2,29 l 0,-2.1 q 3.1,0.3 6.2,0.3 a 46.784,46.784 0 0 0 4.244,-0.181 q 1.986,-0.181 3.685,-0.544 A 21.642,21.642 0 0 0 455.8,25.8 Z m -157.4,-0.2 2.3,0 q -0.368,4.512 -0.397,15.131 A 681.48,681.48 0 0 0 300.3,42.6 l -2.3,0 a 31.228,31.228 0 0 0 -1.293,-5.159 q -1.029,-2.95 -2.621,-5.268 A 19.054,19.054 0 0 0 293.75,31.7 q -3.15,-4.3 -9.35,-4.3 a 10.336,10.336 0 0 0 -2.704,0.337 7.783,7.783 0 0 0 -3.196,1.713 6.725,6.725 0 0 0 -2.173,4.048 9.75,9.75 0 0 0 -0.127,1.602 q 0,3.5 2.4,5.85 a 23.582,23.582 0 0 0 1.681,1.479 q 2.293,1.851 6.019,4.171 0.9,0.5 2.7,1.7 a 126.469,126.469 0 0 1 2.95,1.98 q 1.307,0.905 2.419,1.735 A 55.436,55.436 0 0 1 296.4,53.6 q 2.8,2.3 4.55,5.3 a 12.861,12.861 0 0 1 1.654,5.121 16.09,16.09 0 0 1 0.096,1.779 q 0,6.6 -4.95,10.3 A 18.393,18.393 0 0 1 289.498,79.503 24.706,24.706 0 0 1 285.6,79.8 24.509,24.509 0 0 1 281.655,79.497 17.94,17.94 0 0 1 277.7,78.4 q -2.2,-1.1 -4.1,-2.7 A 1.474,1.474 0 0 0 273.259,75.441 1.16,1.16 0 0 0 272.7,75.3 q -0.688,0 -1.232,0.969 A 4.182,4.182 0 0 0 271.45,76.3 q -0.369,0.672 -0.626,1.705 a 14.298,14.298 0 0 0 -0.223,1.09 L 268.3,79.1 a 108.397,108.397 0 0 0 0.175,-3.38 q 0.202,-5.267 0.223,-14.41 A 951.057,951.057 0 0 0 268.7,59.1 l 2.3,0 a 61.526,61.526 0 0 0 0.812,5.163 q 1.149,5.617 3.188,8.887 2.9,4.65 9.9,4.65 3.5,0 6.2,-2.3 a 7.148,7.148 0 0 0 2.146,-3.293 q 0.39,-1.186 0.506,-2.636 A 15.985,15.985 0 0 0 293.8,68.3 9.469,9.469 0 0 0 293.008,64.393 9.176,9.176 0 0 0 291.15,61.7 Q 288.5,59 282.5,55.2 278.462,52.645 275.952,50.837 A 55.753,55.753 0 0 1 274.95,50.1 q -2.65,-2 -4.45,-4.9 a 11.934,11.934 0 0 1 -1.673,-4.799 15.336,15.336 0 0 1 -0.127,-2.001 15.022,15.022 0 0 1 0.496,-3.974 10.483,10.483 0 0 1 3.704,-5.626 15.147,15.147 0 0 1 6.615,-2.94 21.123,21.123 0 0 1 3.985,-0.36 20.117,20.117 0 0 1 3.35,0.266 15.275,15.275 0 0 1 3.05,0.834 19.546,19.546 0 0 1 2.094,0.96 q 1.397,0.749 2.406,1.64 1.1,0.8 1.8,0.8 a 1.439,1.439 0 0 0 1.191,-0.668 q 0.728,-0.995 0.984,-3.471 A 20.847,20.847 0 0 0 298.4,25.6 Z m -158.9,0 2.3,0 q -0.368,4.512 -0.397,15.131 A 681.48,681.48 0 0 0 141.4,42.6 l -2.3,0 a 31.228,31.228 0 0 0 -1.293,-5.159 q -1.029,-2.95 -2.621,-5.268 A 19.054,19.054 0 0 0 134.85,31.7 q -3.15,-4.3 -9.35,-4.3 a 10.336,10.336 0 0 0 -2.704,0.337 7.783,7.783 0 0 0 -3.196,1.713 6.725,6.725 0 0 0 -2.173,4.048 9.75,9.75 0 0 0 -0.127,1.602 q 0,3.5 2.4,5.85 a 23.582,23.582 0 0 0 1.681,1.479 q 2.293,1.851 6.019,4.171 0.9,0.5 2.7,1.7 a 126.469,126.469 0 0 1 2.95,1.98 q 1.307,0.905 2.419,1.735 A 55.436,55.436 0 0 1 137.5,53.6 q 2.8,2.3 4.55,5.3 a 12.861,12.861 0 0 1 1.654,5.121 16.09,16.09 0 0 1 0.096,1.779 q 0,6.6 -4.95,10.3 A 18.393,18.393 0 0 1 130.598,79.503 24.706,24.706 0 0 1 126.7,79.8 24.509,24.509 0 0 1 122.755,79.497 17.94,17.94 0 0 1 118.8,78.4 q -2.2,-1.1 -4.1,-2.7 A 1.474,1.474 0 0 0 114.359,75.441 1.16,1.16 0 0 0 113.8,75.3 q -0.688,0 -1.232,0.969 A 4.182,4.182 0 0 0 112.55,76.3 q -0.369,0.672 -0.626,1.705 a 14.298,14.298 0 0 0 -0.223,1.09 L 109.4,79.1 a 108.397,108.397 0 0 0 0.175,-3.38 q 0.202,-5.267 0.223,-14.41 A 951.057,951.057 0 0 0 109.8,59.1 l 2.3,0 a 61.526,61.526 0 0 0 0.812,5.163 q 1.149,5.617 3.188,8.887 2.9,4.65 9.9,4.65 3.5,0 6.2,-2.3 a 7.148,7.148 0 0 0 2.146,-3.293 q 0.39,-1.186 0.506,-2.636 A 15.985,15.985 0 0 0 134.9,68.3 9.469,9.469 0 0 0 134.108,64.393 9.176,9.176 0 0 0 132.25,61.7 Q 129.6,59 123.6,55.2 119.562,52.645 117.052,50.837 A 55.753,55.753 0 0 1 116.05,50.1 q -2.65,-2 -4.45,-4.9 A 11.934,11.934 0 0 1 109.927,40.401 15.336,15.336 0 0 1 109.8,38.4 15.022,15.022 0 0 1 110.296,34.426 10.483,10.483 0 0 1 114,28.8 a 15.147,15.147 0 0 1 6.615,-2.94 21.123,21.123 0 0 1 3.985,-0.36 20.117,20.117 0 0 1 3.35,0.266 15.275,15.275 0 0 1 3.05,0.834 19.546,19.546 0 0 1 2.094,0.96 q 1.397,0.749 2.406,1.64 1.1,0.8 1.8,0.8 a 1.439,1.439 0 0 0 1.191,-0.668 q 0.728,-0.995 0.984,-3.471 A 20.847,20.847 0 0 0 139.5,25.6 Z m -111.4,18.2 0,-6.2 q 0,-4.886 -1.738,-7.181 A 5.173,5.173 0 0 0 25.65,29.65 8.103,8.103 0 0 0 22.551,27.988 Q 21.337,27.63 19.883,27.534 A 16.562,16.562 0 0 0 18.8,27.5 q -4.119,0 -6.818,1.247 A 8.405,8.405 0 0 0 8.9,31.1 q 2,0.5 3.35,2.1 A 5.67,5.67 0 0 1 13.526,36.119 7.633,7.633 0 0 1 13.6,37.2 6.288,6.288 0 0 1 13.376,38.926 4.664,4.664 0 0 1 12,41.15 5.525,5.525 0 0 1 9.059,42.515 7.611,7.611 0 0 1 7.9,42.6 q -2.8,0 -4.2,-1.75 A 6.365,6.365 0 0 1 2.343,37.446 8.283,8.283 0 0 1 2.3,36.6 8.268,8.268 0 0 1 2.49,34.782 5.921,5.921 0 0 1 3.45,32.6 10.292,10.292 0 0 1 4.575,31.3 q 0.6,-0.594 1.358,-1.187 A 21.336,21.336 0 0 1 6.9,29.4 q 2.079,-1.473 5.134,-2.495 A 29.798,29.798 0 0 1 13,26.6 26.473,26.473 0 0 1 18.158,25.63 32.497,32.497 0 0 1 21.1,25.5 q 5.259,0 8.79,1.681 A 11.986,11.986 0 0 1 32.9,29.2 q 2.5,2.3 3.35,5.55 a 21.93,21.93 0 0 1 0.484,2.477 q 0.183,1.297 0.275,2.816 A 54.309,54.309 0 0 1 37.1,43.3 l 0,27.8 a 14.181,14.181 0 0 0 0.05,1.229 q 0.136,1.563 0.65,2.371 a 2.25,2.25 0 0 0 1.35,0.97 q 0.466,0.13 1.05,0.13 1.2,0 2.25,-0.55 a 10.308,10.308 0 0 0 0.948,-0.567 Q 44.025,74.263 44.7,73.7 l 1.1,1.7 a 39.13,39.13 0 0 1 -1.551,1.138 q -1.574,1.091 -2.816,1.674 a 11.545,11.545 0 0 1 -0.083,0.038 8.513,8.513 0 0 1 -1.8,0.581 Q 38.275,79.1 36.7,79.1 A 15.054,15.054 0 0 1 34.355,78.931 Q 31.396,78.463 30,76.7 A 8.249,8.249 0 0 1 28.546,73.773 Q 28.1,72.186 28.1,70.2 a 23.771,23.771 0 0 1 -2.324,3.261 q -1.449,1.688 -3.068,2.798 A 12.722,12.722 0 0 1 21.2,77.15 Q 17.3,79.1 12.4,79.1 A 20.044,20.044 0 0 1 8.946,78.822 Q 7.071,78.494 5.597,77.776 A 8.983,8.983 0 0 1 3.05,75.95 Q 0.151,72.955 0.008,67.746 A 19.911,19.911 0 0 1 0,67.2 13.548,13.548 0 0 1 0.397,63.838 10.003,10.003 0 0 1 2.45,59.8 q 2.45,-2.9 5.8,-4.6 2.251,-1.142 5.473,-2.375 A 109.888,109.888 0 0 1 17.1,51.6 87.464,87.464 0 0 0 20.021,50.555 Q 23.46,49.25 25.4,48.1 A 6.616,6.616 0 0 0 26.824,46.993 4.462,4.462 0 0 0 28.1,43.8 Z m 456.5,-33.5 0,16.7 14.8,0 0,2 -14.8,0 0,38.7 a 19.438,19.438 0 0 0 0.124,2.274 q 0.328,2.773 1.526,4.226 a 5.344,5.344 0 0 0 3.206,1.859 8.04,8.04 0 0 0 1.544,0.141 6.728,6.728 0 0 0 4.987,-2.161 9.158,9.158 0 0 0 0.313,-0.339 11.288,11.288 0 0 0 1.369,-1.985 q 1.137,-2.05 2.042,-5.166 A 43.403,43.403 0 0 0 500,65.5 l 2,0.5 a 28.581,28.581 0 0 1 -1.476,5.377 Q 497.204,79.8 489,79.8 a 23.804,23.804 0 0 1 -2.288,-0.103 Q 484.81,79.513 483.4,79 481.2,78.2 479.5,76.5 A 11.649,11.649 0 0 1 476.562,71.496 13.802,13.802 0 0 1 476.45,71.1 21.036,21.036 0 0 1 475.971,68.671 Q 475.6,66.065 475.6,62.5 l 0,-33.5 -9.6,0 0,-2 9.6,0 0,-15.3 q 3.675,-0.131 6.403,-0.693 A 19.867,19.867 0 0 0 484.6,10.3 Z m -158.2,0 0,16.7 14.8,0 0,2 -14.8,0 0,38.7 a 19.438,19.438 0 0 0 0.124,2.274 q 0.328,2.773 1.526,4.226 a 5.344,5.344 0 0 0 3.206,1.859 8.04,8.04 0 0 0 1.544,0.141 6.728,6.728 0 0 0 4.987,-2.161 9.158,9.158 0 0 0 0.313,-0.339 11.288,11.288 0 0 0 1.369,-1.985 q 1.137,-2.05 2.042,-5.166 A 43.403,43.403 0 0 0 341.8,65.5 l 2,0.5 a 28.581,28.581 0 0 1 -1.476,5.377 Q 339.004,79.8 330.8,79.8 a 23.804,23.804 0 0 1 -2.288,-0.103 Q 326.61,79.513 325.2,79 323,78.2 321.3,76.5 A 11.649,11.649 0 0 1 318.362,71.496 13.802,13.802 0 0 1 318.25,71.1 21.036,21.036 0 0 1 317.771,68.671 Q 317.4,66.065 317.4,62.5 l 0,-33.5 -9.6,0 0,-2 9.6,0 0,-15.3 q 3.675,-0.131 6.403,-0.693 A 19.867,19.867 0 0 0 326.4,10.3 Z m 64.7,0 0,16.7 14.8,0 0,2 -14.8,0 0,38.7 a 19.438,19.438 0 0 0 0.124,2.274 q 0.328,2.773 1.526,4.226 a 5.344,5.344 0 0 0 3.206,1.859 8.04,8.04 0 0 0 1.544,0.141 6.728,6.728 0 0 0 4.987,-2.161 9.158,9.158 0 0 0 0.313,-0.339 11.288,11.288 0 0 0 1.369,-1.985 q 1.137,-2.05 2.042,-5.166 A 43.403,43.403 0 0 0 406.5,65.5 l 2,0.5 a 28.581,28.581 0 0 1 -1.476,5.377 Q 403.704,79.8 395.5,79.8 a 23.804,23.804 0 0 1 -2.288,-0.103 Q 391.31,79.513 389.9,79 387.7,78.2 386,76.5 A 11.649,11.649 0 0 1 383.062,71.496 13.802,13.802 0 0 1 382.95,71.1 21.036,21.036 0 0 1 382.471,68.671 Q 382.1,66.065 382.1,62.5 l 0,-33.5 -9.6,0 0,-2 9.6,0 0,-15.3 q 3.675,-0.131 6.403,-0.693 A 19.867,19.867 0 0 0 391.1,10.3 Z m 154.2,55.3 2,0.8 a 19.434,19.434 0 0 1 -5.42,8.308 24.069,24.069 0 0 1 -1.33,1.142 18.025,18.025 0 0 1 -9.812,3.854 23.226,23.226 0 0 1 -2.138,0.096 26.057,26.057 0 0 1 -6.335,-0.738 20.602,20.602 0 0 1 -5.965,-2.512 20.933,20.933 0 0 1 -7.863,-8.918 25.02,25.02 0 0 1 -0.087,-0.182 28.446,28.446 0 0 1 -2.33,-7.817 37.667,37.667 0 0 1 -0.42,-5.733 45.632,45.632 0 0 1 0.536,-7.172 q 0.646,-4.058 2.071,-7.475 A 28.2,28.2 0 0 1 508.4,38.8 q 2.8,-6.4 7.9,-9.85 a 20.136,20.136 0 0 1 9.715,-3.357 25.268,25.268 0 0 1 2.185,-0.093 23.762,23.762 0 0 1 5.638,0.629 15.662,15.662 0 0 1 8.212,4.821 q 3.64,4.09 4.548,11.363 A 41.94,41.94 0 0 1 546.9,47.5 l -31.3,0 a 49.78,49.78 0 0 0 -0.215,2.801 Q 515.3,51.988 515.3,53.9 a 34.177,34.177 0 0 0 0.442,5.632 24.668,24.668 0 0 0 1.708,5.868 22.006,22.006 0 0 0 2.15,3.857 16.243,16.243 0 0 0 3.55,3.693 14.011,14.011 0 0 0 3.376,1.891 11.328,11.328 0 0 0 4.074,0.759 17.036,17.036 0 0 0 4.987,-0.708 14.782,14.782 0 0 0 3.513,-1.592 q 3.095,-1.924 5.35,-6.016 A 26.932,26.932 0 0 0 545.3,65.6 Z M 94,0 94,69.1 a 15.576,15.576 0 0 0 0.107,1.891 q 0.251,2.051 1.1,3.207 a 3.728,3.728 0 0 0 0.493,0.552 4.752,4.752 0 0 0 1.465,0.882 q 1.413,0.562 3.59,0.651 A 20.725,20.725 0 0 0 101.6,76.3 l 0,2.1 Q 94.085,78.073 90.774,78.013 A 71.977,71.977 0 0 0 89.5,78 78.996,78.996 0 0 0 87.93,78.019 Q 84.588,78.088 77.4,78.4 l 0,-2.1 q 4.2,0 5.9,-1.55 a 4.281,4.281 0 0 0 1.036,-1.52 q 0.574,-1.353 0.652,-3.448 A 18.248,18.248 0 0 0 85,69.1 L 85,12 A 19.725,19.725 0 0 0 84.868,9.625 Q 84.564,7.127 83.562,5.653 A 5.259,5.259 0 0 0 83.3,5.3 4.992,4.992 0 0 0 81.246,3.828 Q 79.697,3.2 77.4,3.2 l 0,-2.1 q 3.1,0.3 6.2,0.3 A 46.784,46.784 0 0 0 87.844,1.219 Q 89.83,1.038 91.529,0.675 A 21.642,21.642 0 0 0 94,0 Z m -28.6,25.8 0,43.3 a 15.576,15.576 0 0 0 0.107,1.891 q 0.251,2.051 1.1,3.207 a 3.728,3.728 0 0 0 0.493,0.552 4.752,4.752 0 0 0 1.465,0.882 q 1.413,0.562 3.59,0.651 A 20.725,20.725 0 0 0 73,76.3 l 0,2.1 Q 65.485,78.073 62.174,78.013 A 71.977,71.977 0 0 0 60.9,78 78.996,78.996 0 0 0 59.33,78.019 Q 55.988,78.088 48.8,78.4 l 0,-2.1 q 4.2,0 5.9,-1.55 a 4.281,4.281 0 0 0 1.036,-1.52 q 0.574,-1.353 0.652,-3.448 A 18.248,18.248 0 0 0 56.4,69.1 l 0,-31.3 A 19.725,19.725 0 0 0 56.268,35.425 Q 55.964,32.927 54.962,31.453 A 5.259,5.259 0 0 0 54.7,31.1 4.992,4.992 0 0 0 52.646,29.628 Q 51.097,29 48.8,29 l 0,-2.1 A 67.314,67.314 0 0 0 54.247,27.195 60.756,60.756 0 0 0 55,27.2 46.784,46.784 0 0 0 59.244,27.019 q 1.986,-0.181 3.685,-0.544 A 21.642,21.642 0 0 0 65.4,25.8 Z m 296.9,0 0,43.3 a 15.576,15.576 0 0 0 0.107,1.891 q 0.251,2.051 1.1,3.207 a 3.728,3.728 0 0 0 0.493,0.552 4.752,4.752 0 0 0 1.465,0.882 q 1.413,0.562 3.59,0.651 A 20.725,20.725 0 0 0 369.9,76.3 l 0,2.1 q -7.515,-0.327 -10.826,-0.387 A 71.977,71.977 0 0 0 357.8,78 a 78.996,78.996 0 0 0 -1.57,0.019 q -3.342,0.069 -10.53,0.381 l 0,-2.1 q 4.2,0 5.9,-1.55 a 4.281,4.281 0 0 0 1.036,-1.52 q 0.574,-1.353 0.652,-3.448 A 18.248,18.248 0 0 0 353.3,69.1 l 0,-31.3 a 19.725,19.725 0 0 0 -0.132,-2.375 q -0.304,-2.498 -1.306,-3.972 A 5.259,5.259 0 0 0 351.6,31.1 4.992,4.992 0 0 0 349.546,29.628 Q 347.997,29 345.7,29 l 0,-2.1 a 67.314,67.314 0 0 0 5.447,0.295 60.756,60.756 0 0 0 0.753,0.005 46.784,46.784 0 0 0 4.244,-0.181 q 1.986,-0.181 3.685,-0.544 A 21.642,21.642 0 0 0 362.3,25.8 Z m -169.1,0 0,43.3 a 15.576,15.576 0 0 0 0.107,1.891 q 0.251,2.051 1.1,3.207 a 3.728,3.728 0 0 0 0.493,0.552 4.752,4.752 0 0 0 1.465,0.882 q 1.413,0.562 3.59,0.651 A 20.725,20.725 0 0 0 200.8,76.3 l 0,2.1 q -7.515,-0.327 -10.826,-0.387 A 71.977,71.977 0 0 0 188.7,78 a 78.996,78.996 0 0 0 -1.57,0.019 q -3.342,0.069 -10.53,0.381 l 0,-2.1 q 4.2,0 5.9,-1.55 a 4.281,4.281 0 0 0 1.036,-1.52 q 0.574,-1.353 0.652,-3.448 A 18.248,18.248 0 0 0 184.2,69.1 l 0,-31.3 a 19.725,19.725 0 0 0 -0.132,-2.375 q -0.304,-2.498 -1.306,-3.972 A 5.259,5.259 0 0 0 182.5,31.1 4.992,4.992 0 0 0 180.446,29.628 Q 178.897,29 176.6,29 l 0,-2.1 a 67.314,67.314 0 0 0 5.447,0.295 60.756,60.756 0 0 0 0.753,0.005 46.784,46.784 0 0 0 4.244,-0.181 q 1.986,-0.181 3.685,-0.544 A 21.642,21.642 0 0 0 193.2,25.8 Z M 28.1,67.5 28.1,47.9 A 6.745,6.745 0 0 1 26.176,49.845 8.201,8.201 0 0 1 25.6,50.2 q -1.6,0.9 -4.9,2.4 -3.8,1.6 -6.15,3.05 A 13.053,13.053 0 0 0 11.161,58.699 15.494,15.494 0 0 0 10.5,59.6 9.355,9.355 0 0 0 9.162,62.702 Q 8.857,63.968 8.809,65.445 A 17.216,17.216 0 0 0 8.8,66 14.672,14.672 0 0 0 9.014,68.59 q 0.472,2.627 1.986,4.21 2.2,2.3 5.8,2.3 6.6,0 11.3,-7.6 z m 487.4,-21.9 21.8,0 a 45.358,45.358 0 0 0 0.016,-1.163 q 0,-5.972 -1.636,-10.341 A 19.76,19.76 0 0 0 535.05,32.6 11.708,11.708 0 0 0 533.486,30.086 7.077,7.077 0 0 0 527.8,27.4 9.002,9.002 0 0 0 521.657,29.828 14.149,14.149 0 0 0 519.7,32 q -3.391,4.589 -4.196,13.556 A 54.459,54.459 0 0 0 515.5,45.6 Z M 361.541,3.741 A 6.138,6.138 0 0 0 357.1,1.9 6.201,6.201 0 0 0 354.816,2.318 6.465,6.465 0 0 0 352.6,3.8 7.796,7.796 0 0 0 352.542,3.86 6.138,6.138 0 0 0 350.7,8.3 a 6.201,6.201 0 0 0 0.418,2.285 6.465,6.465 0 0 0 1.482,2.215 7.796,7.796 0 0 0 0.06,0.059 6.138,6.138 0 0 0 4.44,1.841 6.201,6.201 0 0 0 2.285,-0.418 A 6.465,6.465 0 0 0 361.6,12.8 7.796,7.796 0 0 0 361.659,12.74 6.138,6.138 0 0 0 363.5,8.3 6.201,6.201 0 0 0 363.083,6.015 6.465,6.465 0 0 0 361.6,3.8 7.796,7.796 0 0 0 361.541,3.741 Z m -296.9,0 A 6.138,6.138 0 0 0 60.2,1.9 6.201,6.201 0 0 0 57.916,2.318 6.465,6.465 0 0 0 55.7,3.8 7.796,7.796 0 0 0 55.642,3.86 6.138,6.138 0 0 0 53.8,8.3 6.201,6.201 0 0 0 54.218,10.585 6.465,6.465 0 0 0 55.7,12.8 7.796,7.796 0 0 0 55.76,12.859 6.138,6.138 0 0 0 60.2,14.7 6.201,6.201 0 0 0 62.485,14.282 6.465,6.465 0 0 0 64.7,12.8 7.796,7.796 0 0 0 64.759,12.74 6.138,6.138 0 0 0 66.6,8.3 6.201,6.201 0 0 0 66.183,6.015 6.465,6.465 0 0 0 64.7,3.8 7.796,7.796 0 0 0 64.641,3.741 Z m 127.8,0 A 6.138,6.138 0 0 0 188,1.9 6.201,6.201 0 0 0 185.716,2.318 6.465,6.465 0 0 0 183.5,3.8 7.796,7.796 0 0 0 183.442,3.86 6.138,6.138 0 0 0 181.6,8.3 a 6.201,6.201 0 0 0 0.418,2.285 6.465,6.465 0 0 0 1.482,2.215 7.796,7.796 0 0 0 0.06,0.059 A 6.138,6.138 0 0 0 188,14.7 6.201,6.201 0 0 0 190.285,14.282 6.465,6.465 0 0 0 192.5,12.8 7.796,7.796 0 0 0 192.559,12.74 6.138,6.138 0 0 0 194.4,8.3 6.201,6.201 0 0 0 193.983,6.015 6.465,6.465 0 0 0 192.5,3.8 7.796,7.796 0 0 0 192.441,3.741 Z m -26.9,65.1 A 6.138,6.138 0 0 0 161.1,67 a 6.201,6.201 0 0 0 -2.284,0.418 6.465,6.465 0 0 0 -2.216,1.482 7.796,7.796 0 0 0 -0.058,0.06 6.138,6.138 0 0 0 -1.842,4.44 6.201,6.201 0 0 0 0.418,2.285 6.465,6.465 0 0 0 1.482,2.215 7.796,7.796 0 0 0 0.06,0.059 6.138,6.138 0 0 0 4.44,1.841 6.201,6.201 0 0 0 2.285,-0.418 6.465,6.465 0 0 0 2.215,-1.482 7.796,7.796 0 0 0 0.059,-0.06 6.138,6.138 0 0 0 1.841,-4.44 6.201,6.201 0 0 0 -0.417,-2.285 6.465,6.465 0 0 0 -1.483,-2.215 7.796,7.796 0 0 0 -0.059,-0.059 z"
       vector-effect="non-scaling-stroke"
       id="path5"
       inkscape:connector-curvature="0"
       style="fill:#000000;stroke:#ffffff;stroke-opacity:0.27380952" />
  </g>
</svg>
