<?xml version="1.0" encoding="UTF-8" standalone="no"?>
<!-- Generator: Adobe Illustrator 18.0.0, SVG Export Plug-In . SVG Version: 6.00 Build 0)  -->

<svg
   xmlns:dc="http://purl.org/dc/elements/1.1/"
   xmlns:cc="http://creativecommons.org/ns#"
   xmlns:rdf="http://www.w3.org/1999/02/22-rdf-syntax-ns#"
   xmlns:svg="http://www.w3.org/2000/svg"
   xmlns="http://www.w3.org/2000/svg"
   xmlns:sodipodi="http://sodipodi.sourceforge.net/DTD/sodipodi-0.dtd"
   xmlns:inkscape="http://www.inkscape.org/namespaces/inkscape"
   width="180"
   height="180"
   viewBox="0 0 180 180"
   id="svg2"
   version="1.1"
   inkscape:version="0.91 r13725"
   sodipodi:docname="ails-logo-small.svg">
  <metadata
     id="metadata11">
    <rdf:RDF>
      <cc:Work
         rdf:about="">
        <dc:format>image/svg+xml</dc:format>
        <dc:type
           rdf:resource="http://purl.org/dc/dcmitype/StillImage" />
        <dc:title></dc:title>
      </cc:Work>
    </rdf:RDF>
  </metadata>
  <defs
     id="defs9" />
  <sodipodi:namedview
     pagecolor="#ffffff"
     bordercolor="#666666"
     borderopacity="1"
     objecttolerance="10"
     gridtolerance="10"
     guidetolerance="10"
     inkscape:pageopacity="0"
     inkscape:pageshadow="2"
     inkscape:window-width="1013"
     inkscape:window-height="667"
     id="namedview7"
     showgrid="false"
     inkscape:zoom="0.56641697"
     inkscape:cx="320.29802"
     inkscape:cy="-21.883293"
     inkscape:window-x="0"
     inkscape:window-y="0"
     inkscape:window-maximized="0"
     inkscape:current-layer="svg2" />
  <path
     style="font-size:medium;fill:#000000;fill-rule:evenodd;stroke:#ffffff;stroke-width:0.25mm;stroke-linecap:round;stroke-opacity:0.27380952"
     inkscape:connector-curvature="0"
     id="path5"
     vector-effect="non-scaling-stroke"
     d="m 149.5,65.791 2.3,0 c -0.24533,3.008 -0.37767,8.05167 -0.397,15.131 -0.002,0.623 -0.003,1.246 -0.003,1.869 l -2.3,0 c -0.28351,-1.75331 -0.71608,-3.47923 -1.293,-5.159 -0.686,-1.96667 -1.55967,-3.72266 -2.621,-5.268 -0.10959,-0.15936 -0.22161,-0.31705 -0.336,-0.473 -2.1,-2.86666 -5.21667,-4.3 -9.35,-4.3 -0.91226,-0.007 -1.82149,0.10583 -2.704,0.337 -1.18535,0.31141 -2.2804,0.89833 -3.196,1.713 -1.17708,1.0524 -1.94634,2.48541 -2.173,4.048 -0.0863,0.5296 -0.12882,1.06542 -0.127,1.602 0,2.33333 0.8,4.28333 2.4,5.85 0.5366,0.51934 1.09757,1.0129 1.681,1.479 1.52867,1.234 3.535,2.62433 6.019,4.171 0.6,0.33333 1.5,0.9 2.7,1.7 0.99256,0.64616 1.97599,1.30622 2.95,1.98 0.87133,0.60333 1.67767,1.18167 2.419,1.735 0.68919,0.51253 1.36637,1.04101 2.031,1.585 1.86667,1.53333 3.38333,3.3 4.55,5.3 0.90629,1.57126 1.46997,3.31646 1.654,5.121 0.0648,0.59077 0.0969,1.18468 0.096,1.779 0,4.4 -1.65,7.83333 -4.95,10.3 -2.42952,1.7947 -5.26364,2.96345 -8.252,3.403 -1.28945,0.20181 -2.59286,0.30112 -3.898,0.297 -1.32102,0.005 -2.64031,-0.0959 -3.945,-0.303 -1.35596,-0.21316 -2.68297,-0.58123 -3.955,-1.097 -1.46667,-0.73333 -2.83333,-1.63333 -4.1,-2.7 -0.10045,-0.10247 -0.21533,-0.18972 -0.341,-0.259 -0.1715,-0.0933 -0.36377,-0.14179 -0.559,-0.141 -0.45867,0 -0.86933,0.323 -1.232,0.969 -0.006,0.0103 -0.012,0.0206 -0.018,0.031 -0.246,0.448 -0.45467,1.01633 -0.626,1.705 -0.0885,0.3603 -0.16284,0.72391 -0.223,1.09 l -2.301,0.005 c 0.0759,-1.12569 0.13426,-2.25249 0.175,-3.38 0.13467,-3.51133 0.209,-8.31467 0.223,-14.41 0.002,-0.73666 0.002,-1.47333 0.002,-2.21 l 2.3,0 c 0.19741,1.73173 0.46833,3.45428 0.812,5.163 0.766,3.74467 1.82867,6.707 3.188,8.887 1.93333,3.1 5.23333,4.65 9.9,4.65 2.33333,0 4.4,-0.76667 6.2,-2.3 1.009,-0.87556 1.75244,-2.01636 2.146,-3.293 0.26,-0.79067 0.42867,-1.66933 0.506,-2.636 0.0329,-0.42286 0.0489,-0.84686 0.048,-1.271 0.0162,-1.34378 -0.25374,-2.67562 -0.792,-3.907 -0.45301,-1.00172 -1.08234,-1.91389 -1.858,-2.693 -1.76667,-1.8 -4.65,-3.96666 -8.65,-6.5 -2.692,-1.70333 -4.87467,-3.15767 -6.548,-4.363 -0.33673,-0.24193 -0.67075,-0.48761 -1.002,-0.737 -1.76667,-1.33333 -3.25,-2.96666 -4.45,-4.9 -0.89577,-1.46099 -1.46637,-3.09776 -1.673,-4.799 -0.0859,-0.66351 -0.12836,-1.33194 -0.127,-2.001 -0.0128,-1.34087 0.15404,-2.67741 0.496,-3.974 0.58215,-2.23174 1.88405,-4.20919 3.704,-5.626 1.93497,-1.50023 4.20479,-2.50904 6.615,-2.94 1.31395,-0.24582 2.64827,-0.36636 3.985,-0.36 1.12213,-0.005 2.24271,0.0841 3.35,0.266 1.04278,0.17174 2.06492,0.45124 3.05,0.834 0.71627,0.27856 1.41548,0.59911 2.094,0.96 0.93133,0.49934 1.73333,1.046 2.406,1.64 0.73333,0.53334 1.33333,0.8 1.8,0.8 0.4841,-0.008 0.93166,-0.25915 1.191,-0.668 0.48533,-0.66333 0.81333,-1.82033 0.984,-3.471 0.009,-0.087 0.0172,-0.17395 0.025,-0.261 z m -111.4,18.2 0,-6.2 c 0,-3.25733 -0.579333,-5.651 -1.738,-7.181 -0.210689,-0.27977 -0.449246,-0.53743 -0.712,-0.769 -0.898884,-0.77417 -1.956793,-1.34153 -3.099,-1.662 -0.809333,-0.23866 -1.698667,-0.39 -2.668,-0.454 -0.360533,-0.0231 -0.721726,-0.0345 -1.083,-0.034 -2.746,0 -5.018667,0.41567 -6.818,1.247 -1.196686,0.5334 -2.252102,1.33918 -3.082,2.353 1.333333,0.33334 2.45,1.03333 3.35,2.1 0.695552,0.83106 1.138365,1.84405 1.276,2.919 0.05024,0.35813 0.07497,0.71937 0.074,1.081 0.0057,0.58294 -0.06968,1.16383 -0.224,1.726 -0.237183,0.85739 -0.714621,1.62906 -1.376,2.224 -0.82176,0.73889 -1.846216,1.21437 -2.941,1.365 -0.383603,0.0578 -0.771065,0.0863 -1.159,0.085 -1.866667,0 -3.266667,-0.58333 -4.2,-1.75 -0.776246,-0.97711 -1.24814,-2.16084 -1.357,-3.404 -0.02875,-0.28108 -0.04311,-0.56345 -0.043,-0.846 -0.0041,-0.61116 0.05967,-1.22088 0.19,-1.818 0.168761,-0.78489 0.49538,-1.52727 0.96,-2.182 0.338088,-0.46395 0.714401,-0.8988 1.125,-1.3 0.4,-0.396 0.852667,-0.79166 1.358,-1.187 0.315577,-0.24669 0.638038,-0.48446 0.967,-0.713 1.386,-0.982 3.097333,-1.81366 5.134,-2.495 0.320248,-0.10713 0.642295,-0.20881 0.966,-0.305 1.682958,-0.49339 3.410781,-0.81832 5.158,-0.97 0.978198,-0.0878 1.959873,-0.13114 2.942,-0.13 3.506,0 6.436,0.56034 8.79,1.681 1.099875,0.51654 2.114809,1.19732 3.01,2.019 1.666667,1.53334 2.783333,3.38334 3.35,5.55 0.20875,0.81569 0.370351,1.64273 0.484,2.477 0.122,0.86467 0.213667,1.80333 0.275,2.816 0.0629,1.08451 0.09325,2.17067 0.091,3.257 l 0,27.8 c -0.0011,0.4102 0.01557,0.82025 0.05,1.229 0.09067,1.042 0.307333,1.83234 0.65,2.371 0.309679,0.48381 0.792677,0.83085 1.35,0.97 0.310667,0.0867 0.660667,0.13 1.05,0.13 0.8,0 1.55,-0.18333 2.25,-0.55 0.325907,-0.17192 0.642361,-0.36119 0.948,-0.567 0.418,-0.28 0.852,-0.60766 1.302,-0.983 l 1.1,1.7 c -0.507596,0.39199 -1.024752,0.77144 -1.551,1.138 -1.049333,0.72734 -1.988,1.28534 -2.816,1.674 -0.02762,0.0128 -0.05528,0.0254 -0.083,0.038 -0.576556,0.25993 -1.180281,0.4548 -1.8,0.581 -0.85,0.17934 -1.8,0.269 -2.85,0.269 -0.784877,0.005 -1.568934,-0.0516 -2.345,-0.169 -1.972667,-0.312 -3.424333,-1.05566 -4.355,-2.231 -0.67503,-0.86893 -1.169398,-1.86412 -1.454,-2.927 -0.297333,-1.058 -0.446,-2.249 -0.446,-3.573 -0.681569,1.15043 -1.458993,2.2413 -2.324,3.261 -0.966,1.12534 -1.988667,2.058 -3.068,2.798 -0.4816,0.33129 -0.985461,0.629 -1.508,0.891 -2.6,1.3 -5.533333,1.95 -8.8,1.95 -1.1572,0.007 -2.31285,-0.0858 -3.454,-0.278 -1.25,-0.21866 -2.366333,-0.56733 -3.349,-1.046 -0.949435,-0.45472 -1.811552,-1.07279 -2.547,-1.826 -1.932667,-1.99667 -2.946667,-4.73133 -3.042,-8.204 -0.0052,-0.18195 -0.0078,-0.36397 -0.008,-0.546 -0.00875,-1.13286 0.124621,-2.26234 0.397,-3.362 0.366547,-1.48528 1.068888,-2.8667 2.053,-4.038 1.633333,-1.93333 3.566667,-3.46667 5.8,-4.6 1.500667,-0.76133 3.325,-1.553 5.473,-2.375 1.118917,-0.42671 2.244734,-0.83509 3.377,-1.225 0.979768,-0.33104 1.953588,-0.67942 2.921,-1.045 2.292667,-0.87 4.085667,-1.68833 5.379,-2.455 0.522976,-0.30226 1.002094,-0.67472 1.424,-1.107 0.834822,-0.85112 1.294315,-2.00094 1.276,-3.193 z M 104,40.191002 104,109.291 c -0.003,0.63192 0.033,1.26342 0.107,1.891 0.16733,1.36734 0.534,2.43633 1.1,3.207 0.14562,0.1999 0.31076,0.38481 0.493,0.552 0.43098,0.38017 0.92735,0.67901 1.465,0.882 0.942,0.37467 2.13867,0.59167 3.59,0.651 0.28152,0.0114 0.56325,0.0171 0.845,0.017 l 0,2.1 c -5.01,-0.218 -8.61867,-0.347 -10.826,-0.387 -0.42462,-0.008 -0.849303,-0.0124 -1.274,-0.013 -0.523383,10e-4 -1.046743,0.007 -1.57,0.019 -2.228,0.046 -5.738,0.173 -10.53,0.381 l 0,-2.1 c 2.8,0 4.766667,-0.51667 5.9,-1.55 0.451393,-0.42561 0.804886,-0.94425 1.036,-1.52 0.382667,-0.902 0.6,-2.05133 0.652,-3.448 0.0082,-0.22724 0.01225,-0.45461 0.012,-0.682 l 0,-57.1 c 0.0038,-0.7936 -0.04026,-1.58671 -0.132,-2.375 -0.202667,-1.66533 -0.638,-2.98933 -1.306,-3.971998 -0.08237,-0.121267 -0.169785,-0.239037 -0.262,-0.353 -0.54709,-0.658706 -1.254419,-1.165614 -2.054,-1.472 -1.032667,-0.418667 -2.314667,-0.628 -3.846,-0.628 l 0,-2.1 c 2.066667,0.2 4.133333,0.3 6.2,0.3 1.416677,0.004 2.832803,-0.05644 4.244,-0.181 1.324,-0.120667 2.55233,-0.302 3.685,-0.544 0.83627,-0.176016 1.66138,-0.40141 2.471,-0.675 z M 75.4,65.991 l 0,43.3 c -0.0027,0.63192 0.03301,1.26342 0.107,1.891 0.167333,1.36733 0.534,2.43633 1.1,3.207 0.145617,0.1999 0.310764,0.38481 0.493,0.552 0.430982,0.38017 0.927351,0.67901 1.465,0.882 0.942,0.37467 2.138667,0.59167 3.59,0.651 0.281522,0.0114 0.563247,0.0171 0.845,0.017 l 0,2.1 c -5.01,-0.218 -8.618667,-0.347 -10.826,-0.387 -0.42462,-0.008 -0.849303,-0.0124 -1.274,-0.013 -0.523383,10e-4 -1.046743,0.007 -1.57,0.019 -2.228,0.046 -5.738,0.173 -10.53,0.381 l 0,-2.1 c 2.8,0 4.766667,-0.51667 5.9,-1.55 0.451393,-0.42561 0.804886,-0.94425 1.036,-1.52 0.382667,-0.902 0.6,-2.05133 0.652,-3.448 0.0082,-0.22724 0.01225,-0.45461 0.012,-0.682 l 0,-31.3 C 66.4038,77.1974 66.35974,76.40429 66.268,75.616 66.065333,73.95067 65.63,72.62667 64.962,71.644 64.87962,71.52274 64.792215,71.40497 64.7,71.291 64.15291,70.6323 63.445581,70.12539 62.646,69.819 61.613333,69.40034 60.331333,69.191 58.8,69.191 l 0,-2.1 c 1.810935,0.17189 3.628093,0.27031 5.447,0.295 0.250987,0.003 0.501992,0.005 0.753,0.005 1.416677,0.004 2.832803,-0.0564 4.244,-0.181 1.324,-0.12066 2.552333,-0.302 3.685,-0.544 0.836271,-0.17601 1.661383,-0.40141 2.471,-0.675 z m -37.3,41.7 0,-19.6 c -0.501734,0.77296 -1.156535,1.43491 -1.924,1.945 -0.187035,0.12621 -0.379198,0.24464 -0.576,0.355 -1.066667,0.6 -2.7,1.4 -4.9,2.4 -2.533333,1.06667 -4.583333,2.08333 -6.15,3.05 -1.29977,0.80967 -2.446928,1.84174 -3.389,3.049 -0.231096,0.29229 -0.451572,0.59282 -0.661,0.901 -0.63055,0.94424 -1.083941,1.99537 -1.338,3.102 -0.203333,0.844 -0.321,1.75833 -0.353,2.743 -0.006,0.18494 -0.009,0.36997 -0.009,0.555 -0.0054,0.86797 0.0662,1.7347 0.214,2.59 0.314667,1.75133 0.976667,3.15467 1.986,4.21 1.466667,1.53333 3.4,2.3 5.8,2.3 4.4,0 8.166667,-2.53333 11.3,-7.6 z M 74.641,43.932002 c -1.168439,-1.191976 -2.771926,-1.856696 -4.441,-1.841 -0.780861,-0.0057 -1.555777,0.136099 -2.284,0.418 -0.833604,0.334684 -1.588313,0.839413 -2.216,1.482 -0.01944,0.0199 -0.03877,0.0399 -0.058,0.06 -1.192092,1.168029 -1.85716,2.771128 -1.842,4.439998 -0.0058,0.7812 0.135975,1.55647 0.418,2.285 0.334806,0.83325 0.839528,1.58761 1.482,2.215 0.01989,0.0198 0.03989,0.0394 0.06,0.059 1.168197,1.19173 2.771272,1.85643 4.44,1.841 0.781197,0.006 1.556464,-0.13597 2.285,-0.418 0.833246,-0.3348 1.587605,-0.83953 2.215,-1.482 0.01977,-0.0199 0.03944,-0.0399 0.059,-0.06 1.191724,-1.16819 1.856423,-2.77127 1.841,-4.44 0.0062,-0.78113 -0.135317,-1.5564 -0.417,-2.285 -0.335101,-0.833332 -0.840168,-1.587698 -1.483,-2.214998 -0.01956,-0.01977 -0.03923,-0.03944 -0.059,-0.059 z m 100.9,65.099998 c -1.16844,-1.19197 -2.77193,-1.85669 -4.441,-1.841 -0.78086,-0.006 -1.55578,0.1361 -2.284,0.418 -0.8336,0.33469 -1.58831,0.83941 -2.216,1.482 -0.0194,0.0199 -0.0388,0.0399 -0.058,0.06 -1.19209,1.16803 -1.85716,2.77113 -1.842,4.44 -0.006,0.7812 0.13598,1.55647 0.418,2.285 0.33481,0.83325 0.83953,1.58761 1.482,2.215 0.0199,0.0198 0.0399,0.0394 0.06,0.059 1.1682,1.19173 2.77127,1.85643 4.44,1.841 0.7812,0.006 1.55646,-0.13597 2.285,-0.418 0.83325,-0.3348 1.58761,-0.83953 2.215,-1.482 0.0198,-0.0199 0.0394,-0.0399 0.059,-0.06 1.19172,-1.1682 1.85642,-2.77127 1.841,-4.44 0.006,-0.78113 -0.13532,-1.5564 -0.417,-2.285 -0.3351,-0.83333 -0.84017,-1.5877 -1.483,-2.215 -0.0196,-0.0198 -0.0392,-0.0394 -0.059,-0.059 z"
     sodipodi:nodetypes="ccccccccccccccccccccccccccccccccccccccccccscccccccccccccccccccccccccsccccccccccccccccccccccscccccccccccccscccccccccccccccccccccccccccccccccccccccccccccccccccccccccccccccccccccccccccccccccccccccccccccccccccccccsccccccccccccccccccccccccccccccccccc" />
</svg>
